<svg width="92" height="84" viewBox="0 0 92 84" fill="none" xmlns="http://www.w3.org/2000/svg">
<path d="M69.3716 40.5479V78.3729C69.5443 79.582 69.1643 82 66.2627 82C63.3611 82 28.4377 82 11.3387 82C8.22981 81.6546 2.012 79.0984 2.012 71.637C2.012 64.1756 2.012 30.5304 2.012 14.6404C1.83928 11.7042 3.46282 5.83184 11.3387 5.83184C19.2146 5.83184 38.1098 5.83184 46.573 5.83184V12.5678M46.573 12.5678C53.8271 12.5678 62.1175 7.38631 63.672 2.20481C64.4164 -0.276698 68.3353 20.3401 68.3353 34.3301C58.4904 30.1848 51.5726 30.1848 46.573 30.1848M46.573 12.5678C43.6368 13.2587 38.2826 12.5678 36.21 12.5678C24.2925 12.5678 23.7743 30.1848 36.21 30.1848M46.573 30.1848L45.0185 38.9934C43.9822 42.1024 41.3915 42.1024 39.837 38.9934C37.5055 34.3301 36.7281 31.4765 36.21 30.1848M46.573 30.1848C43.4641 30.1848 39.837 30.1848 36.21 30.1848M37.2463 48.8383H57.4541M37.2463 57.1287H57.4541M14.9658 67.4917H57.4541M72.9987 9.97719L87.5069 4.27754M74.5531 19.3039L84.398 18.2676M74.5531 28.6306L89.0613 31.7395M14.9658 46.7657H29.474V59.2013H14.9658V46.7657Z" stroke="#FFBB00" stroke-width="4" stroke-linecap="round" stroke-linejoin="round"/>
</svg>
