<svg width="43" height="42" viewBox="0 0 43 42" fill="none" xmlns="http://www.w3.org/2000/svg">
<path d="M11.4472 39L6.92641 34.351M24.296 35.0662C20.1717 30.894 10.6145 21.2384 8.82991 19.5695C7.04535 17.9007 3.11936 21.3576 4.42803 23.3841L18.1096 37.0927L7.52125 26.4834C5.02289 26.0066 2.40556 28.6291 3.11936 30.298L6.92641 34.351M18.1096 23.3841L38.8103 3M35.4791 22.4305L20.0131 6.81457C20.0131 6.81457 19.3706 5.12185 20.1321 4.07285M25.9616 4.43046L37.0257 15.3974C37.0257 15.3974 39.1672 15.755 40 14.6821M6.92641 34.351L4.07113 37.0927" stroke="#1E1E1E" stroke-width="5" stroke-linecap="round" stroke-linejoin="round"/>
</svg>
